<?xml version="1.0" encoding="utf-8"?>
<!-- Generator: Adobe Illustrator 19.1.0, SVG Export Plug-In . SVG Version: 6.00 Build 0)  -->
<svg version="1.1" xmlns="http://www.w3.org/2000/svg" xmlns:xlink="http://www.w3.org/1999/xlink" x="0px" y="0px"
	 viewBox="0 0 220 90" style="enable-background:new 0 0 220 90;" xml:space="preserve">
<style type="text/css">
	.st0{fill:#45D7D9;}
	.st1{fill:#FBB03B;}
	.st2{fill:#FAD0CC;}
	.st3{fill:#F24766;}
	.st4{fill:#BFBBDE;}
	.st5{fill:#A9A7E0;}
	.st6{fill:#5DBEBA;}
	.st7{fill:#324C93;}
	.st8{fill:#74B957;}
	.st9{fill:#34AD72;}
	.st10{fill:#D6DA2C;}
	.st11{fill:#33FF99;}
	.st12{fill:#60AEC8;}
	.st13{fill:#F2E6B5;}
	.st14{fill:#E15B10;}
	.st15{fill:#C24141;}
	.st16{fill:#FFE600;}
	.st17{fill:#588493;}
	.st18{fill:#2FAAE1;}
	.st19{fill:#1E1B86;}
	.st20{fill:#3855BB;}
	.st21{fill:#E40274;}
	.st22{fill:#F2F2F2;}
	.st23{fill:#3D4A4C;}
	.st24{fill:#2D8B8C;}
	.st25{fill:#700A09;}
	.st26{fill:#74DF90;}
	.st27{fill:#EF057D;}
	.st28{fill:#762D0E;}
	.st29{fill:#748EDF;}
	.st30{fill:#720000;}
	.st31{fill:#087239;}
	.st32{fill:#C5008A;}
	.st33{fill:#C53B00;}
	.st34{fill:#760E57;}
	.st35{fill:#3B8C60;}
	.st36{fill:#BF0100;}
	.st37{fill:#0ABDBF;}
	.st38{fill:#067172;}
	.st39{fill:#EF1413;}
	.st40{fill:#3B5D8C;}
	.st41{clip-path:url(#SVGID_2_);}
	.st42{display:none;}
	.st43{display:inline;opacity:0.4;}
	.st44{opacity:0.25;}
	.st45{clip-path:url(#SVGID_4_);fill-rule:evenodd;clip-rule:evenodd;fill:#F5EA14;}
	.st46{clip-path:url(#SVGID_6_);fill-rule:evenodd;clip-rule:evenodd;fill:#EC2224;}
	.st47{display:inline;opacity:0.2;}
	.st48{clip-path:url(#SVGID_8_);fill-rule:evenodd;clip-rule:evenodd;fill:#F5EA14;}
	.st49{clip-path:url(#SVGID_10_);fill-rule:evenodd;clip-rule:evenodd;fill:#EC2224;}
	.st50{clip-path:url(#SVGID_12_);fill-rule:evenodd;clip-rule:evenodd;fill:#F5EA14;}
	.st51{clip-path:url(#SVGID_14_);fill-rule:evenodd;clip-rule:evenodd;fill:#EC2224;}
</style>
<g id="Layer_1">
	<g id="filter">
	</g>
	<g>
		<path class="st23" d="M116,26.8c-0.4,0.3-0.5,0.7-0.5,1.2s0.2,0.9,0.7,1.2s1.5,0.6,3,1c1.6,0.4,2.8,1,3.7,1.8
			c0.9,0.8,1.3,1.9,1.3,3.4s-0.6,2.7-1.7,3.7c-1.1,0.9-2.6,1.4-4.5,1.4c-2.7,0-5-1-7.2-3l2.2-2.7c1.8,1.6,3.5,2.4,5,2.4
			c0.7,0,1.2-0.1,1.6-0.4c0.4-0.3,0.6-0.7,0.6-1.2s-0.2-0.9-0.6-1.2s-1.2-0.6-2.5-0.9c-2-0.5-3.4-1.1-4.3-1.8
			c-0.9-0.7-1.4-1.9-1.4-3.5s0.6-2.8,1.7-3.7c1.1-0.9,2.6-1.3,4.3-1.3c1.1,0,2.2,0.2,3.4,0.6s2.1,0.9,2.9,1.6L122,28
			c-1.5-1.1-3-1.7-4.5-1.7C116.8,26.3,116.3,26.5,116,26.8z"/>
		<path class="st23" d="M135.2,34.2v-7h3.6v12.9h-3.6v-1.7c-0.9,1.3-2.1,1.9-3.5,1.9s-2.6-0.4-3.6-1.3c-1-0.9-1.4-2.2-1.4-3.9v-7.8
			h3.6v7c0,2,0.7,3,2.2,3c0.7,0,1.3-0.3,1.9-0.8C134.9,36,135.2,35.2,135.2,34.2z"/>
		<path class="st23" d="M149.6,27.1c1.6,0,2.9,0.6,4.1,1.8c1.2,1.2,1.8,2.8,1.8,4.7s-0.6,3.5-1.8,4.8c-1.2,1.3-2.6,1.9-4.1,1.9
			s-2.8-0.6-3.8-1.9v1.7h-3.6V22.4h3.6v6.3C146.8,27.6,148.1,27.1,149.6,27.1z M145.8,33.7c0,1,0.3,1.9,0.9,2.6s1.3,1,2.1,1
			s1.6-0.3,2.2-1s0.9-1.5,0.9-2.6s-0.3-1.9-0.9-2.6s-1.3-1.1-2.2-1.1s-1.6,0.3-2.1,1C146,31.8,145.8,32.7,145.8,33.7z"/>
		<path class="st23" d="M167.8,36.2c0,1.3-0.5,2.3-1.4,3.1s-2.1,1.2-3.6,1.2c-1,0-2-0.2-3-0.5c-1-0.3-2-0.9-2.8-1.5l1.6-2.3
			c1.3,1,2.8,1.6,4.3,1.6c0.5,0,0.8-0.1,1.1-0.3c0.3-0.2,0.4-0.4,0.4-0.7s-0.2-0.6-0.6-0.8c-0.4-0.3-0.9-0.5-1.6-0.7
			c-0.7-0.2-1.3-0.4-1.6-0.6c-0.4-0.2-0.8-0.4-1.3-0.7c-1-0.6-1.5-1.5-1.5-2.7c0-1.2,0.5-2.2,1.4-2.9s2.2-1.1,3.7-1.1
			c1.5,0,3,0.5,4.6,1.5l-1.3,2.4c-1.1-0.8-2.2-1.2-3.3-1.2c-1.1,0-1.7,0.3-1.7,0.9c0,0.3,0.2,0.6,0.5,0.8c0.4,0.2,0.9,0.4,1.8,0.7
			c0.8,0.3,1.4,0.5,1.7,0.6c0.3,0.1,0.8,0.3,1.2,0.6C167.3,34,167.8,34.9,167.8,36.2z"/>
		<path class="st23" d="M170.8,25.6c-0.4-0.4-0.6-0.9-0.6-1.5s0.2-1.1,0.6-1.5c0.4-0.4,0.9-0.6,1.5-0.6s1.1,0.2,1.5,0.6
			c0.4,0.4,0.6,0.9,0.6,1.5s-0.2,1.1-0.6,1.5c-0.4,0.4-0.9,0.6-1.5,0.6S171.3,26,170.8,25.6z M174.1,40.2h-3.6V27.3h3.6V40.2z"/>
		<path class="st23" d="M182.7,40.4c-1.5,0-2.9-0.6-4.1-1.9c-1.2-1.3-1.8-2.9-1.8-4.8s0.6-3.5,1.8-4.7s2.5-1.8,4.1-1.8
			s2.8,0.6,3.8,1.7v-6.3h3.6v17.8h-3.6v-1.7C185.5,39.8,184.3,40.4,182.7,40.4z M180.5,33.8c0,1,0.3,1.9,0.9,2.6s1.4,1,2.2,1
			c0.8,0,1.5-0.3,2.1-1c0.6-0.7,0.9-1.5,0.9-2.6c0-1-0.3-1.9-0.9-2.6c-0.6-0.7-1.3-1-2.1-1c-0.8,0-1.6,0.4-2.2,1.1
			C180.8,31.9,180.5,32.7,180.5,33.8z"/>
		<path class="st23" d="M193.8,25.6c-0.4-0.4-0.6-0.9-0.6-1.5s0.2-1.1,0.6-1.5c0.4-0.4,0.9-0.6,1.5-0.6s1.1,0.2,1.5,0.6
			c0.4,0.4,0.6,0.9,0.6,1.5s-0.2,1.1-0.6,1.5c-0.4,0.4-0.9,0.6-1.5,0.6S194.2,26,193.8,25.6z M197.1,40.2h-3.6V27.3h3.6V40.2z"/>
		<path class="st23" d="M211.7,38.3c-1.5,1.4-3.2,2.1-5.1,2.1c-2,0-3.6-0.6-4.9-1.8s-1.9-2.8-1.9-4.9c0-2,0.7-3.6,2-4.8
			c1.3-1.2,2.8-1.8,4.6-1.8s3.3,0.5,4.5,1.6c1.2,1.1,1.9,2.5,1.9,4.4V35h-9.4c0.1,0.7,0.5,1.3,1.1,1.7c0.6,0.4,1.3,0.7,2.1,0.7
			c1.3,0,2.3-0.4,3.1-1.3L211.7,38.3z M208.3,30.7c-0.5-0.4-1.1-0.6-1.8-0.6c-0.7,0-1.4,0.2-2,0.6c-0.6,0.4-0.9,1-1,1.8h5.7
			C209.1,31.7,208.8,31.1,208.3,30.7z"/>
		<path class="st23" d="M121.6,50.7v13.5h-3.7V50.7h-4.8v-3.2h13.2v3.2H121.6z"/>
		<path class="st23" d="M135.5,54.4c-1.1,0-1.9,0.4-2.4,1.1c-0.5,0.8-0.8,1.8-0.8,3v5.6h-3.6V51.3h3.6V53c0.5-0.5,1-1,1.7-1.3
			c0.7-0.4,1.4-0.6,2.1-0.6l0,3.4H135.5z"/>
		<path class="st23" d="M149.7,62.3c-1.5,1.4-3.2,2.1-5.1,2.1c-2,0-3.6-0.6-4.9-1.8s-1.9-2.8-1.9-4.9c0-2,0.7-3.6,2-4.8
			c1.3-1.2,2.8-1.8,4.6-1.8s3.3,0.5,4.5,1.6c1.2,1.1,1.9,2.5,1.9,4.4V59h-9.4c0.1,0.7,0.5,1.3,1.1,1.7c0.6,0.4,1.3,0.7,2.1,0.7
			c1.3,0,2.3-0.4,3.1-1.3L149.7,62.3z M146.3,54.7c-0.5-0.4-1.1-0.6-1.8-0.6c-0.7,0-1.4,0.2-2,0.6c-0.6,0.4-0.9,1-1,1.8h5.7
			C147.1,55.7,146.8,55.1,146.3,54.7z"/>
		<path class="st23" d="M157,64.2h-3.6V46.4h3.6v9.1l4-4.3h4.5l-4.9,5.2l5.1,7.7h-4.3l-3.3-4.9l-1.2,1.2V64.2z"/>
		<path class="st23" d="M171.3,64.2h-3.6V46.4h3.6v9.1l4-4.3h4.5l-4.9,5.2l5.1,7.7h-4.3l-3.3-4.9l-1.2,1.2V64.2z"/>
		<path class="st23" d="M193.1,62.3c-1.5,1.4-3.2,2.1-5.1,2.1c-2,0-3.6-0.6-4.9-1.8s-1.9-2.8-1.9-4.9c0-2,0.7-3.6,2-4.8
			c1.3-1.2,2.8-1.8,4.6-1.8s3.3,0.5,4.5,1.6c1.2,1.1,1.9,2.5,1.9,4.4V59h-9.4c0.1,0.7,0.5,1.3,1.1,1.7c0.6,0.4,1.3,0.7,2.1,0.7
			c1.3,0,2.3-0.4,3.1-1.3L193.1,62.3z M189.7,54.7c-0.5-0.4-1.1-0.6-1.8-0.6c-0.7,0-1.4,0.2-2,0.6c-0.6,0.4-0.9,1-1,1.8h5.7
			C190.5,55.7,190.2,55.1,189.7,54.7z"/>
		<path class="st23" d="M203.6,54.4c-1.1,0-1.9,0.4-2.4,1.1c-0.5,0.8-0.8,1.8-0.8,3v5.6h-3.6V51.3h3.6V53c0.5-0.5,1-1,1.7-1.3
			c0.7-0.4,1.4-0.6,2.1-0.6l0,3.4H203.6z"/>
	</g>
	<g>
		<g>
			<g>
				<polygon class="st24" points="38.4,22.4 31.9,0 54.3,6.5 				"/>
				<polygon class="st0" points="22.4,38.4 15.9,15.9 38.4,22.4 				"/>
				<polygon class="st25" points="6.5,54.3 0,31.9 22.4,38.4 				"/>
			</g>
			<g>
				<polygon class="st26" points="67.4,51.4 60.9,29 83.3,35.5 				"/>
				<polygon class="st27" points="51.4,67.4 44.9,44.9 67.4,51.4 				"/>
				<polygon class="st28" points="35.5,83.3 29,60.9 51.4,67.4 				"/>
			</g>
			<g>
				<polygon class="st6" points="45.1,45.1 38.6,22.6 61,29.1 				"/>
				<polygon class="st29" points="61,29.1 54.5,6.7 76.9,13.2 				"/>
				<polygon class="st8" points="29.1,61 22.6,38.6 45.1,45.1 				"/>
				<polygon class="st30" points="13.2,76.9 6.7,54.5 29.1,61 				"/>
			</g>
			<g>
				<polygon class="st31" points="74.1,74.1 67.6,51.6 90,58.1 				"/>
				<polygon class="st32" points="58.1,90 51.6,67.6 74.1,74.1 				"/>
			</g>
		</g>
		<g>
			<g>
				<polygon class="st33" points="51.4,67.4 57.9,89.8 35.5,83.3 				"/>
				<polygon class="st34" points="67.4,51.4 73.9,73.9 51.4,67.4 				"/>
				<polygon class="st35" points="83.3,35.5 89.8,57.9 67.4,51.4 				"/>
			</g>
			<g>
				<polygon class="st36" points="22.4,38.4 28.9,60.8 6.5,54.3 				"/>
				<polygon class="st37" points="38.4,22.4 44.9,44.9 22.4,38.4 				"/>
				<polygon class="st38" points="54.3,6.5 60.8,28.9 38.4,22.4 				"/>
			</g>
			<g>
				<polygon class="st18" points="45.1,45.1 51.6,67.5 29.1,61 				"/>
				<polygon class="st39" points="29.1,61 35.6,83.4 13.2,76.9 				"/>
				<polygon class="st20" points="61,29.1 67.5,51.6 45.1,45.1 				"/>
				<polygon class="st40" points="76.9,13.2 83.4,35.6 61,29.1 				"/>
			</g>
			<g>
				<polygon class="st37" points="16.1,16.1 22.6,38.5 0.1,32 				"/>
				<polygon class="st37" points="32,0.1 38.5,22.6 16.1,16.1 				"/>
			</g>
		</g>
	</g>
</g>
<g id="Layer_2" class="st42">
</g>
</svg>
