<svg version="1.1" xmlns="http://www.w3.org/2000/svg" x="0" y="0" viewBox="0 0 220 90" xml:space="preserve"><style type="text/css">.st0{fill:#45d7d9}.st1{fill:#fbb03b}.st2{fill:#fad0cc}.st3{fill:#f24766}.st4{fill:#bfbbde}.st5{fill:#a9a7e0}.st6{fill:#5dbeba}.st7{fill:#324c93}.st8{fill:#74b957}.st9{fill:#34ad72}.st10{fill:#d6da2c}.st11{fill:#3f9}.st12{fill:#60aec8}.st13{fill:#f2e6b5}.st14{fill:#e15b10}.st15{fill:#c24141}.st16{fill:#ffe600}.st17{fill:#588493}.st18{fill:#2faae1}.st19{fill:#1e1b86}.st20{fill:#3855bb}.st21{fill:#e40274}.st22{fill:#f2f2f2}.st23{fill:#3d4a4c}.st24{fill:#2d8b8c}.st25{fill:#700a09}.st26{fill:#74df90}.st27{fill:#ef057d}.st28{fill:#762d0e}.st29{fill:#748edf}.st30{fill:#720000}.st31{fill:#087239}.st32{fill:#c5008a}.st33{fill:#c53b00}.st34{fill:#760e57}.st35{fill:#3b8c60}.st36{fill:#bf0100}.st37{fill:#0abdbf}.st38{fill:#067172}.st39{fill:#ef1413}.st40{fill:#3b5d8c}.st41{clip-path:url(#SVGID_2_)}.st42{display:none}.st43{display:inline;opacity:.4}.st44{opacity:.25}.st45,.st46{clip-path:url(#SVGID_4_);fill-rule:evenodd;clip-rule:evenodd;fill:#f5ea14}.st46{clip-path:url(#SVGID_6_);fill:#ec2224}.st47{display:inline;opacity:.2}.st48,.st49,.st50,.st51{clip-path:url(#SVGID_8_);fill-rule:evenodd;clip-rule:evenodd;fill:#f5ea14}.st49,.st50,.st51{clip-path:url(#SVGID_10_);fill:#ec2224}.st50,.st51{clip-path:url(#SVGID_12_);fill:#f5ea14}.st51{clip-path:url(#SVGID_14_);fill:#ec2224}</style><g id="Layer_1"><path class="st23" d="M116 26.8c-.4.3-.5.7-.5 1.2s.2.9.7 1.2 1.5.6 3 1c1.6.4 2.8 1 3.7 1.8.9.8 1.3 1.9 1.3 3.4s-.6 2.7-1.7 3.7c-1.1.9-2.6 1.4-4.5 1.4-2.7 0-5-1-7.2-3l2.2-2.7c1.8 1.6 3.5 2.4 5 2.4.7 0 1.2-.1 1.6-.4.4-.3.6-.7.6-1.2s-.2-.9-.6-1.2-1.2-.6-2.5-.9c-2-.5-3.4-1.1-4.3-1.8-.9-.7-1.4-1.9-1.4-3.5s.6-2.8 1.7-3.7c1.1-.9 2.6-1.3 4.3-1.3 1.1 0 2.2.2 3.4.6s2.1.9 2.9 1.6L122 28c-1.5-1.1-3-1.7-4.5-1.7-.7 0-1.2.2-1.5.5zM135.2 34.2v-7h3.6v12.9h-3.6v-1.7c-.9 1.3-2.1 1.9-3.5 1.9s-2.6-.4-3.6-1.3-1.4-2.2-1.4-3.9v-7.8h3.6v7c0 2 .7 3 2.2 3 .7 0 1.3-.3 1.9-.8.5-.5.8-1.3.8-2.3zM149.6 27.1c1.6 0 2.9.6 4.1 1.8 1.2 1.2 1.8 2.8 1.8 4.7s-.6 3.5-1.8 4.8c-1.2 1.3-2.6 1.9-4.1 1.9s-2.8-.6-3.8-1.9v1.7h-3.6V22.4h3.6v6.3c1-1.1 2.3-1.6 3.8-1.6zm-3.8 6.6c0 1 .3 1.9.9 2.6s1.3 1 2.1 1 1.6-.3 2.2-1 .9-1.5.9-2.6-.3-1.9-.9-2.6-1.3-1.1-2.2-1.1-1.6.3-2.1 1c-.7.8-.9 1.7-.9 2.7zM167.8 36.2c0 1.3-.5 2.3-1.4 3.1s-2.1 1.2-3.6 1.2c-1 0-2-.2-3-.5s-2-.9-2.8-1.5l1.6-2.3c1.3 1 2.8 1.6 4.3 1.6.5 0 .8-.1 1.1-.3.3-.2.4-.4.4-.7s-.2-.6-.6-.8c-.4-.3-.9-.5-1.6-.7-.7-.2-1.3-.4-1.6-.6-.4-.2-.8-.4-1.3-.7-1-.6-1.5-1.5-1.5-2.7 0-1.2.5-2.2 1.4-2.9s2.2-1.1 3.7-1.1 3 .5 4.6 1.5l-1.3 2.4c-1.1-.8-2.2-1.2-3.3-1.2-1.1 0-1.7.3-1.7.9 0 .3.2.6.5.8.4.2.9.4 1.8.7.8.3 1.4.5 1.7.6.3.1.8.3 1.2.6.9.4 1.4 1.3 1.4 2.6zM170.8 25.6c-.4-.4-.6-.9-.6-1.5s.2-1.1.6-1.5c.4-.4.9-.6 1.5-.6s1.1.2 1.5.6c.4.4.6.9.6 1.5s-.2 1.1-.6 1.5c-.4.4-.9.6-1.5.6s-1-.2-1.5-.6zm3.3 14.6h-3.6V27.3h3.6v12.9zM182.7 40.4c-1.5 0-2.9-.6-4.1-1.9-1.2-1.3-1.8-2.9-1.8-4.8s.6-3.5 1.8-4.7 2.5-1.8 4.1-1.8 2.8.6 3.8 1.7v-6.3h3.6v17.8h-3.6v-1.7c-1 1.1-2.2 1.7-3.8 1.7zm-2.2-6.6c0 1 .3 1.9.9 2.6s1.4 1 2.2 1c.8 0 1.5-.3 2.1-1 .6-.7.9-1.5.9-2.6 0-1-.3-1.9-.9-2.6-.6-.7-1.3-1-2.1-1s-1.6.4-2.2 1.1c-.6.6-.9 1.4-.9 2.5zM193.8 25.6c-.4-.4-.6-.9-.6-1.5s.2-1.1.6-1.5c.4-.4.9-.6 1.5-.6s1.1.2 1.5.6c.4.4.6.9.6 1.5s-.2 1.1-.6 1.5c-.4.4-.9.6-1.5.6s-1.1-.2-1.5-.6zm3.3 14.6h-3.6V27.3h3.6v12.9zM211.7 38.3c-1.5 1.4-3.2 2.1-5.1 2.1-2 0-3.6-.6-4.9-1.8s-1.9-2.8-1.9-4.9c0-2 .7-3.6 2-4.8 1.3-1.2 2.8-1.8 4.6-1.8s3.3.5 4.5 1.6c1.2 1.1 1.9 2.5 1.9 4.4V35h-9.4c.1.7.5 1.3 1.1 1.7.6.4 1.3.7 2.1.7 1.3 0 2.3-.4 3.1-1.3l2 2.2zm-3.4-7.6c-.5-.4-1.1-.6-1.8-.6s-1.4.2-2 .6c-.6.4-.9 1-1 1.8h5.7c-.1-.8-.4-1.4-.9-1.8zM121.6 50.7v13.5h-3.7V50.7h-4.8v-3.2h13.2v3.2h-4.7zM135.5 54.4c-1.1 0-1.9.4-2.4 1.1-.5.8-.8 1.8-.8 3v5.6h-3.6V51.3h3.6V53c.5-.5 1-1 1.7-1.3.7-.4 1.4-.6 2.1-.6v3.4h-.6zM149.7 62.3c-1.5 1.4-3.2 2.1-5.1 2.1-2 0-3.6-.6-4.9-1.8s-1.9-2.8-1.9-4.9c0-2 .7-3.6 2-4.8 1.3-1.2 2.8-1.8 4.6-1.8s3.3.5 4.5 1.6c1.2 1.1 1.9 2.5 1.9 4.4V59h-9.4c.1.7.5 1.3 1.1 1.7.6.4 1.3.7 2.1.7 1.3 0 2.3-.4 3.1-1.3l2 2.2zm-3.4-7.6c-.5-.4-1.1-.6-1.8-.6s-1.4.2-2 .6c-.6.4-.9 1-1 1.8h5.7c-.1-.8-.4-1.4-.9-1.8zM157 64.2h-3.6V46.4h3.6v9.1l4-4.3h4.5l-4.9 5.2 5.1 7.7h-4.3l-3.3-4.9-1.2 1.2v3.8zM171.3 64.2h-3.6V46.4h3.6v9.1l4-4.3h4.5l-4.9 5.2 5.1 7.7h-4.3l-3.3-4.9-1.2 1.2v3.8zM193.1 62.3c-1.5 1.4-3.2 2.1-5.1 2.1-2 0-3.6-.6-4.9-1.8s-1.9-2.8-1.9-4.9c0-2 .7-3.6 2-4.8 1.3-1.2 2.8-1.8 4.6-1.8s3.3.5 4.5 1.6c1.2 1.1 1.9 2.5 1.9 4.4V59h-9.4c.1.7.5 1.3 1.1 1.7.6.4 1.3.7 2.1.7 1.3 0 2.3-.4 3.1-1.3l2 2.2zm-3.4-7.6c-.5-.4-1.1-.6-1.8-.6s-1.4.2-2 .6c-.6.4-.9 1-1 1.8h5.7c-.1-.8-.4-1.4-.9-1.8zM203.6 54.4c-1.1 0-1.9.4-2.4 1.1-.5.8-.8 1.8-.8 3v5.6h-3.6V51.3h3.6V53c.5-.5 1-1 1.7-1.3.7-.4 1.4-.6 2.1-.6v3.4h-.6z"/><g><path class="st24" d="M38.4 22.4L31.9 0l22.4 6.5z"/><path class="st0" d="M22.4 38.4l-6.5-22.5 22.5 6.5z"/><path class="st25" d="M6.5 54.3L0 31.9l22.4 6.5z"/><path class="st26" d="M67.4 51.4L60.9 29l22.4 6.5z"/><path class="st27" d="M51.4 67.4l-6.5-22.5 22.5 6.5z"/><path class="st28" d="M35.5 83.3L29 60.9l22.4 6.5z"/><g><path class="st6" d="M45.1 45.1l-6.5-22.5L61 29.1z"/><path class="st29" d="M61 29.1L54.5 6.7l22.4 6.5z"/><path class="st8" d="M29.1 61l-6.5-22.4 22.5 6.5z"/><path class="st30" d="M13.2 76.9L6.7 54.5 29.1 61z"/></g><g><path class="st31" d="M74.1 74.1l-6.5-22.5L90 58.1z"/><path class="st32" d="M58.1 90l-6.5-22.4 22.5 6.5z"/></g><g><path class="st33" d="M51.4 67.4l6.5 22.4-22.4-6.5z"/><path class="st34" d="M67.4 51.4l6.5 22.5-22.5-6.5z"/><path class="st35" d="M83.3 35.5l6.5 22.4-22.4-6.5z"/><path class="st36" d="M22.4 38.4l6.5 22.4-22.4-6.5z"/><path class="st37" d="M38.4 22.4l6.5 22.5-22.5-6.5z"/><path class="st38" d="M54.3 6.5l6.5 22.4-22.4-6.5z"/><g><path class="st18" d="M45.1 45.1l6.5 22.4L29.1 61z"/><path class="st39" d="M29.1 61l6.5 22.4-22.4-6.5z"/><path class="st20" d="M61 29.1l6.5 22.5-22.4-6.5z"/><path class="st40" d="M76.9 13.2l6.5 22.4L61 29.1z"/></g><g><path class="st37" d="M16.1 16.1l6.5 22.4L.1 32zM32 .1l6.5 22.5-22.4-6.5z"/></g></g></g></g></svg>