<svg xmlns="http://www.w3.org/2000/svg" viewBox="0 0 560 200"><defs><style>.cls-1{isolation:isolate;}.cls-2{fill:#e6e6e6;}.cls-3{fill:#19bbbd;}.cls-3,.cls-4{opacity:0.9;}.cls-3,.cls-4,.cls-5{mix-blend-mode:multiply;}.cls-4{fill:#ec1c24;}.cls-5{fill:#067172;opacity:0.75;}.cls-6{fill:#3d4a4c;}</style></defs><title>subsidietrekker logo outlines</title><g class="cls-1"><g id="Layer_1" data-name="Layer 1"><circle class="cls-2" cx="29.1" cy="20" r="8"/><circle class="cls-2" cx="29.1" cy="100" r="8"/><circle class="cls-2" cx="29.1" cy="180" r="8"/><circle class="cls-2" cx="109.1" cy="20" r="8"/><circle class="cls-2" cx="109.1" cy="100" r="8"/><circle class="cls-2" cx="109.1" cy="180" r="8"/><circle class="cls-2" cx="189.1" cy="20" r="8"/><circle class="cls-2" cx="189.1" cy="100" r="8"/><circle class="cls-2" cx="189.1" cy="180" r="8"/><path class="cls-3" d="M189,108l-121-.26-8-8V20l8-8H189l8,8v80ZM76,91.76,181,92V28H76Z"/><path class="cls-4" d="M181.81,187.5,102,23.5,109.2,12H189l8,8V184ZM122,28l59,121.27V28Z"/><path class="cls-5" d="M109.2,187.42c-22.33,0-43.46-4.47-59.48-12.58-17.75-9-27.52-21.57-27.52-35.42S32,113,49.73,104c16-8.11,37.14-12.58,59.48-12.58s43.46,4.47,59.48,12.58c17.75,9,27.52,21.57,27.52,35.42s-9.78,26.43-27.52,35.42C152.66,183,131.53,187.42,109.2,187.42Zm0-80c-41.84,0-71,16.86-71,32s29.16,32,71,32,71-16.86,71-32S151,107.42,109.2,107.42Z"/><path class="cls-6" d="M244.06,45.3a4.34,4.34,0,0,0-1.62,3.53,4,4,0,0,0,2,3.49q2,1.3,9.14,3.06t11.12,5.29q4,3.53,4,10.3a13.59,13.59,0,0,1-5.08,11q-5.08,4.21-13.36,4.21-12,0-21.53-8.86l6.7-8.21q8.14,7.13,15,7.13a7.9,7.9,0,0,0,4.86-1.33,4.28,4.28,0,0,0,1.76-3.6,4.2,4.2,0,0,0-1.87-3.6q-1.87-1.33-7.42-2.7Q239,62.9,234.91,59.55T230.85,49q0-7.16,5.15-11.05a20.71,20.71,0,0,1,12.85-3.89,30.92,30.92,0,0,1,10.08,1.73,27,27,0,0,1,8.78,4.9L262,48.93a22.16,22.16,0,0,0-13.54-5A6.77,6.77,0,0,0,244.06,45.3Z"/><path class="cls-6" d="M300.9,67.73V46.85h10.87V85.58H300.9V80.47q-4,5.69-10.4,5.69a15.15,15.15,0,0,1-10.69-4q-4.32-4-4.32-11.84V46.85h10.87v21.1q0,8.93,6.55,8.93a7.74,7.74,0,0,0,5.62-2.34Q300.9,72.19,300.9,67.73Z"/><path class="cls-6" d="M343.6,46.2a16.5,16.5,0,0,1,12.31,5.51q5.25,5.51,5.26,14.15a20.49,20.49,0,0,1-5.4,14.47q-5.4,5.83-12.28,5.83a14,14,0,0,1-11.41-5.69v5.11h-10.8V32.16h10.8v19A14.78,14.78,0,0,1,343.6,46.2ZM331.93,66.25a11.23,11.23,0,0,0,2.63,7.7,8.18,8.18,0,0,0,6.37,3,8.73,8.73,0,0,0,6.55-3,10.74,10.74,0,0,0,2.81-7.67,11.59,11.59,0,0,0-2.74-7.85A8.38,8.38,0,0,0,341,55.27a8.1,8.1,0,0,0-6.44,3.13A11.79,11.79,0,0,0,331.93,66.25Z"/><path class="cls-6" d="M397.31,73.52a11.28,11.28,0,0,1-4.21,9.18,16.3,16.3,0,0,1-10.69,3.46,28.63,28.63,0,0,1-9-1.55A26.52,26.52,0,0,1,365,80l4.75-6.77A20.69,20.69,0,0,0,382.62,78a5.84,5.84,0,0,0,3.31-.83,2.54,2.54,0,0,0,1.22-2.2,3.17,3.17,0,0,0-1.69-2.52,19.15,19.15,0,0,0-4.9-2.16q-3.21-1-4.9-1.73a27.45,27.45,0,0,1-3.85-2.09,8.94,8.94,0,0,1-4.39-8.1,10.62,10.62,0,0,1,4.32-8.75q4.32-3.38,11.16-3.38a24.35,24.35,0,0,1,13.68,4.61l-4,7.2a17.69,17.69,0,0,0-10-3.46q-5,0-5,2.74a2.63,2.63,0,0,0,1.58,2.38,32.05,32.05,0,0,0,5.26,2q3.67,1.15,5.22,1.76a26.37,26.37,0,0,1,3.71,1.91Q397.31,67.8,397.31,73.52Z"/><path class="cls-6" d="M405.77,41.91a6.43,6.43,0,1,1,4.5,1.84A6.12,6.12,0,0,1,405.77,41.91Zm9.9,43.67h-10.8V46.85h10.8Z"/><path class="cls-6" d="M440.69,86.16q-6.88,0-12.28-5.83A20.49,20.49,0,0,1,423,65.85q0-8.64,5.26-14.15a16.49,16.49,0,0,1,12.31-5.51,14.78,14.78,0,0,1,11.52,5v-19h10.8V85.58H452.1V80.47A14,14,0,0,1,440.69,86.16Zm-6.8-19.87A10.74,10.74,0,0,0,436.69,74a8.73,8.73,0,0,0,6.55,3,8.18,8.18,0,0,0,6.37-3,11.23,11.23,0,0,0,2.63-7.7,11.8,11.8,0,0,0-2.63-7.85,8.11,8.11,0,0,0-6.44-3.13,8.38,8.38,0,0,0-6.55,3.17A11.58,11.58,0,0,0,433.88,66.29Z"/><path class="cls-6" d="M473.3,41.91a6.43,6.43,0,1,1,4.5,1.84A6.12,6.12,0,0,1,473.3,41.91Zm9.9,43.67H472.4V46.85h10.8Z"/><path class="cls-6" d="M526.26,80a21.66,21.66,0,0,1-15.37,6.19,20.4,20.4,0,0,1-14.58-5.44q-5.76-5.44-5.76-14.58t5.87-14.54a19.79,19.79,0,0,1,13.86-5.4A20,20,0,0,1,523.85,51q5.58,4.82,5.58,13.25V70H501.2a7.7,7.7,0,0,0,3.31,5.18,10.59,10.59,0,0,0,6.34,2,12.43,12.43,0,0,0,9.36-3.82ZM515.89,57a8.18,8.18,0,0,0-5.44-1.87,9.73,9.73,0,0,0-5.87,1.94,7.43,7.43,0,0,0-3.1,5.26h17A7.67,7.67,0,0,0,515.89,57Z"/><path class="cls-6" d="M244.09,126.62V144a5,5,0,0,0,1.15,3.49,3.58,3.58,0,0,0,2.74,1.26,6.24,6.24,0,0,0,5.11-2.74l4,7.56q-5,4.61-10.62,4.61a13.15,13.15,0,0,1-9.43-3.67q-3.85-3.67-3.85-10V126.62h-4.54v-7.78h4.54V107.25h10.87v11.59h9.36v7.78Z"/><path class="cls-6" d="M282.54,128.35q-4.82,0-7.2,3.42a15.54,15.54,0,0,0-2.38,9v16.78h-10.8V118.85H273V124a18.15,18.15,0,0,1,5.22-4,14.19,14.19,0,0,1,6.37-1.73l.07,10.15Z"/><path class="cls-6" d="M324.59,152a21.65,21.65,0,0,1-15.37,6.19,20.39,20.39,0,0,1-14.58-5.44q-5.76-5.44-5.76-14.58t5.87-14.54a19.79,19.79,0,0,1,13.86-5.4A20,20,0,0,1,322.18,123q5.58,4.82,5.58,13.25V142H299.53a7.69,7.69,0,0,0,3.31,5.18,10.6,10.6,0,0,0,6.34,2,12.43,12.43,0,0,0,9.36-3.82Zm-10.37-23a8.18,8.18,0,0,0-5.44-1.87,9.73,9.73,0,0,0-5.87,1.94,7.44,7.44,0,0,0-3.1,5.26h17A7.67,7.67,0,0,0,314.22,129Z"/><path class="cls-6" d="M345.61,157.58h-10.8V104.16h10.8v27.43l12-12.82h13.61l-14.76,15.7,15.34,23.11H359l-9.86-14.83-3.53,3.67Z"/><path class="cls-6" d="M387.73,157.58h-10.8V104.16h10.8v27.43l12-12.82h13.61l-14.76,15.7,15.34,23.11H401.12l-9.86-14.83-3.53,3.67Z"/><path class="cls-6" d="M452.6,152a21.66,21.66,0,0,1-15.37,6.19,20.4,20.4,0,0,1-14.58-5.44q-5.76-5.44-5.76-14.58t5.87-14.54a19.79,19.79,0,0,1,13.86-5.4A20,20,0,0,1,450.19,123q5.58,4.82,5.58,13.25V142H427.55a7.7,7.7,0,0,0,3.31,5.18,10.59,10.59,0,0,0,6.34,2,12.43,12.43,0,0,0,9.36-3.82Zm-10.37-23a8.18,8.18,0,0,0-5.44-1.87,9.73,9.73,0,0,0-5.87,1.94,7.43,7.43,0,0,0-3.1,5.26h17A7.67,7.67,0,0,0,442.23,129Z"/><path class="cls-6" d="M483.2,128.35q-4.83,0-7.2,3.42a15.54,15.54,0,0,0-2.38,9v16.78h-10.8V118.85h10.8V124a18.15,18.15,0,0,1,5.22-4,14.19,14.19,0,0,1,6.37-1.73l.07,10.15Z"/></g></g></svg>